<svg width="70" height="70" viewBox="0 0 70 70" fill="none" xmlns="http://www.w3.org/2000/svg">
<path d="M52.4413 3.84102C53.342 2.94031 54.4113 2.22582 55.5882 1.73836C56.765 1.25089 58.0263 1 59.3001 1C60.5739 1 61.8353 1.25089 63.0121 1.73836C64.189 2.22582 65.2583 2.94031 66.159 3.84102C67.0597 4.74174 67.7742 5.81105 68.2616 6.98789C68.7491 8.16473 69 9.42606 69 10.6999C69 11.9737 68.7491 13.235 68.2616 14.4118C67.7742 15.5887 67.0597 16.658 66.159 17.5587L19.8618 63.8559L1 69L6.14413 50.1382L52.4413 3.84102Z" fill="#D9D9D9" stroke="#F2F2E8" stroke-width="2" stroke-linecap="round" stroke-linejoin="round"/>
</svg>
