<svg width="555" height="160" viewBox="0 0 555 160" fill="none" xmlns="http://www.w3.org/2000/svg">
<rect width="555" height="160" rx="73" fill="#D63852"/>
<path d="M443.219 70.6V58.12H489.5V109H455.219V70.6H443.219ZM455.219 51.4V37.96H489.5V51.4H455.219Z" fill="white"/>
<path d="M328.5 70.6V58.12H441.616V83.56L352.5 92.2V96.52H417.616V92.2L441.616 89.8V109H328.5V70.6ZM352.5 79.816L417.616 74.92V70.6H352.5V79.816Z" fill="white"/>
<path d="M361.5 53L354 38H416.5L409.5 53H361.5Z" fill="white"/>
<path d="M264.969 81.16V68.68H276.969V29.5L300.489 17.98H348.489V39.1L324.489 36.7V30.46H306.729L300.969 33.34V68.68H329.289V81.16H300.969V160H276.969V81.16H264.969Z" fill="white"/>
<path d="M159 108.88V83.44L239 75.76V70.48H183V74.8L159 77.2V58H263V108.88H245.816L240.92 104.08L236.12 108.88H159ZM183 96.4H239V87.376L183 92.08V96.4Z" fill="white"/>
<path d="M187.5 53L180 38H242.5L235.5 53H187.5Z" fill="white"/>
<path d="M60 100.744V85.96L72 83.176V0H96V77.8L132 69.64V58.12H156V78.76L127.68 85.096L141.12 96.52H156V109H127.68L106.08 89.8L96 92.2V160H72V97.96L60 100.744Z" fill="white"/>
</svg>
