<svg width="232" height="160" viewBox="0 0 232 160" fill="none" xmlns="http://www.w3.org/2000/svg">
<path d="M116 69.64L116 72.18H128V81.4447L140 78.76V58.12H128V59.7H116L116 69.64Z" fill="white"/>
<path d="M116 59.7H128V58.12H116L116 59.7Z" fill="white"/>
<path d="M151.52 9L128 20.52V58.12H140V78.76L128 81.4447V96.52H140V109H128V151.02H152V72.18H180.32V59.7H152V24.36L157.76 21.48H175.52V27.72L199.52 30.12V12.269C197.779 11.105 195.985 10.0139 194.142 9H151.52Z" fill="white"/>
<path d="M140 109V96.52H128V109H140Z" fill="white"/>
<path fill-rule="evenodd" clip-rule="evenodd" d="M0 73C0 38.5363 23.8823 9.65065 56 1.98991V83.176L44 85.96V100.744L56 97.96V158.01C23.8823 150.349 0 121.464 0 87V73ZM80 160H159C199.317 160 232 127.317 232 87V73C232 47.6746 219.104 25.3614 199.52 12.269V30.12L175.52 27.72V21.48H157.76L152 24.36V59.7H180.32V72.18H152V151.02H128V109H111.68L90.08 89.8L80 92.2V160ZM128 96.52V81.4447L111.68 85.096L125.12 96.52H128ZM116 69.64L116 59.7L116 58.12H128V20.52L151.52 9H194.142C183.717 3.26346 171.74 0 159 0H80V77.8L116 69.64Z" fill="#D63852"/>
<path d="M80 0H73C67.1469 0 61.4547 0.688852 56 1.98991V83.176L44 85.96V100.744L56 97.96V158.01C61.4547 159.311 67.1469 160 73 160H80V92.2L90.08 89.8L111.68 109H128V96.52H125.12L111.68 85.096L128 81.4447V72.18H116L116 69.64L80 77.8V0Z" fill="white"/>
</svg>
