<svg width="70" height="70" viewBox="0 0 70 70" fill="none" xmlns="http://www.w3.org/2000/svg">
<path d="M35.4896 0.00325185C15.8064 -0.262589 -0.262601 15.8056 0.00325201 35.4879C0.26574 54.3642 15.6364 69.7342 34.5137 69.9967C54.2003 70.2659 70.2659 54.1977 69.9967 34.5154C69.7375 15.6357 54.3669 0.265727 35.4896 0.00325185ZM56.7612 55.0642C56.6942 55.1367 56.612 55.1935 56.5206 55.2307C56.4291 55.2679 56.3306 55.2845 56.232 55.2793C56.1334 55.2742 56.0372 55.2474 55.9501 55.201C55.863 55.1545 55.7872 55.0894 55.7281 55.0103C54.2231 53.0413 52.38 51.3556 50.2848 50.0317C46.0009 47.2825 40.5728 45.7682 35.0016 45.7682C29.4305 45.7682 24.0024 47.2825 19.7184 50.0317C17.6234 51.355 15.7803 53.0402 14.2752 55.0087C14.2161 55.0877 14.1403 55.1528 14.0532 55.1993C13.9661 55.2458 13.8698 55.2725 13.7712 55.2777C13.6727 55.2828 13.5741 55.2662 13.4827 55.229C13.3912 55.1918 13.3091 55.135 13.2421 55.0625C8.30473 49.7328 5.50792 42.7687 5.38762 35.5047C5.11335 19.132 18.549 5.42774 34.9293 5.38736C51.3095 5.34698 64.6157 18.6474 64.6157 35C64.6213 42.4391 61.8158 49.6057 56.7612 55.0642Z" fill="#F2F2E8"/>
<path d="M35.0015 16.1555C31.6834 16.1555 28.6833 17.3989 26.5514 19.6586C24.4196 21.9182 23.3545 25.0427 23.5951 28.396C24.083 34.9999 29.1999 40.384 35.0015 40.384C40.8032 40.384 45.9099 34.9999 46.408 28.3976C46.657 25.0763 45.6003 21.9805 43.4331 19.6787C41.2928 17.4073 38.2978 16.1555 35.0015 16.1555Z" fill="#F2F2E8"/>
</svg>
