<svg width="402" height="160" viewBox="0 0 402 160" fill="none" xmlns="http://www.w3.org/2000/svg">
<path d="M402 96.423C402 121.828 381.405 142.423 356 142.423H286.646H240.094H88.9429H56C51.9495 142.423 47.9994 141.993 44.1929 141.176C18.9349 135.755 0 113.3 0 86.423V73.423C0 46.5456 18.9349 24.0907 44.1929 18.67C47.9994 17.8531 51.9495 17.423 56 17.423H88.9429H252.353H356C364.304 17.423 372.093 19.6232 378.818 23.4723C392.668 31.3996 402 46.3215 402 63.423V96.423Z" fill="#D63852"/>
<path fill-rule="evenodd" clip-rule="evenodd" d="M21.8179 100.744V85.96L44.1929 83.176V18.67C47.9994 17.8531 51.9495 17.423 56 17.423H88.9429V77.8L156.068 69.64V58.12H200.818V78.76L148.013 85.096L173.073 96.52H200.818V109H148.013L107.738 89.8L88.9429 92.2V142.423H56C51.9495 142.423 47.9994 141.993 44.1929 141.176V97.96L21.8179 100.744Z" fill="white"/>
<path fill-rule="evenodd" clip-rule="evenodd" d="M216.818 72.1711V59.6929H240.094V20.5184L252.353 17.423H356C364.304 17.423 372.093 19.6232 378.818 23.4723V30.117L332.266 27.7174V21.4782H297.818L286.646 24.3578V59.6929H341.577V72.1711H286.646V142.423H240.094V72.1711H216.818Z" fill="white"/>
<path d="M343.069 32.59C343.069 38.9909 337.88 44.1799 331.479 44.1799H303.59C297.189 44.1799 292 38.9909 292 32.59C292 26.189 297.189 21 303.59 21H331.479C337.88 21 343.069 26.189 343.069 32.59Z" fill="#772230"/>
<path d="M343.312 90.5598C343.312 95.5304 339.283 99.5598 334.312 99.5598H301.243C296.273 99.5598 292.243 95.5304 292.243 90.5598V69.1697C292.243 64.1991 296.273 60.1697 301.243 60.1697H334.312C339.283 60.1697 343.312 64.1991 343.312 69.1697V90.5598Z" fill="#772230"/>
<path d="M343.069 126.59C343.069 132.991 337.88 138.18 331.479 138.18H303.59C297.189 138.18 292 132.991 292 126.59C292 120.189 297.189 115 303.59 115H331.479C337.88 115 343.069 120.189 343.069 126.59Z" fill="#772230"/>
<path d="M107.069 32.59C107.069 38.9909 101.88 44.1799 95.4793 44.1799H67.59C61.189 44.1799 56 38.9909 56 32.59C56 26.189 61.189 21 67.59 21H95.4793C101.88 21 107.069 26.189 107.069 32.59Z" fill="#772230"/>
<path d="M107.312 90.5598C107.312 95.5304 103.283 99.5598 98.3125 99.5598H65.2433C60.2727 99.5598 56.2433 95.5304 56.2433 90.5598V69.1697C56.2433 64.1991 60.2727 60.1697 65.2433 60.1697H98.3125C103.283 60.1697 107.312 64.1991 107.312 69.1697V90.5598Z" fill="#772230"/>
<path d="M107.069 126.59C107.069 132.991 101.88 138.18 95.4793 138.18H67.59C61.189 138.18 56 132.991 56 126.59C56 120.189 61.189 115 67.59 115H95.4793C101.88 115 107.069 120.189 107.069 126.59Z" fill="#772230"/>
</svg>
